<?xml version="1.0" encoding="UTF-8"?>
<svg width="32" height="32" viewBox="0 0 32 32" fill="none" xmlns="http://www.w3.org/2000/svg">
  <rect width="32" height="32" rx="8" fill="url(#gradient)"/>
  <path d="M16 8C14.5 8 13.2 8.5 12.1 9.6L10.7 11C9.6 12.1 9 13.5 9 15C9 16.5 9.6 17.9 10.7 19L12.1 20.4C13.2 21.5 14.5 22 16 22C17.5 22 18.8 21.5 19.9 20.4L21.3 19C22.4 17.9 23 16.5 23 15C23 13.5 22.4 12.1 21.3 11L19.9 9.6C18.8 8.5 17.5 8 16 8Z" fill="white"/>
  <path d="M16 12C15.2 12 14.5 12.3 13.9 12.9L13.1 13.7C12.5 14.3 12.2 15 12.2 15.8C12.2 16.6 12.5 17.3 13.1 17.9L13.9 18.7C14.5 19.3 15.2 19.6 16 19.6C16.8 19.6 17.5 19.3 18.1 18.7L18.9 17.9C19.5 17.3 19.8 16.6 19.8 15.8C19.8 15 19.5 14.3 18.9 13.7L18.1 12.9C17.5 12.3 16.8 12 16 12Z" fill="url(#gradient)"/>
  <defs>
    <linearGradient id="gradient" x1="0" y1="0" x2="32" y2="32" gradientUnits="userSpaceOnUse">
      <stop offset="0%" stop-color="#3B82F6"/>
      <stop offset="100%" stop-color="#9333EA"/>
    </linearGradient>
  </defs>
</svg>
